<mxfile host="app.diagrams.net" modified="2024-05-11T04:16:42.908Z" agent="Mozilla/5.0 (Windows NT 10.0; Win64; x64) AppleWebKit/537.36 (KHTML, like Gecko) Chrome/124.0.0.0 Safari/537.36" etag="8Uwz0cerAPjC-dY_JavP" version="24.4.0" type="github">
  <diagram name="페이지-1" id="jvaP-56UN1_KO-jczARV">
    <mxGraphModel dx="1372" dy="1009" grid="1" gridSize="10" guides="1" tooltips="1" connect="1" arrows="1" fold="1" page="1" pageScale="1" pageWidth="827" pageHeight="1169" math="0" shadow="0">
      <root>
        <mxCell id="0" />
        <mxCell id="1" parent="0" />
        <mxCell id="y9NvRAD7cyj4UBCkfaOW-1" value="" style="shape=cylinder3;whiteSpace=wrap;html=1;boundedLbl=1;backgroundOutline=1;size=15;fillColor=#f8cecc;strokeColor=#b85450;" vertex="1" parent="1">
          <mxGeometry x="80" y="90" width="60" height="80" as="geometry" />
        </mxCell>
        <mxCell id="y9NvRAD7cyj4UBCkfaOW-2" value="Vertical Container" style="swimlane;whiteSpace=wrap;html=1;fillColor=#dae8fc;strokeColor=#6c8ebf;" vertex="1" parent="1">
          <mxGeometry x="10" y="280" width="200" height="200" as="geometry" />
        </mxCell>
        <mxCell id="y9NvRAD7cyj4UBCkfaOW-3" value="" style="endArrow=classic;startArrow=classic;html=1;rounded=0;entryX=0.5;entryY=1;entryDx=0;entryDy=0;entryPerimeter=0;exitX=0.5;exitY=0;exitDx=0;exitDy=0;" edge="1" parent="1" source="y9NvRAD7cyj4UBCkfaOW-2" target="y9NvRAD7cyj4UBCkfaOW-1">
          <mxGeometry width="50" height="50" relative="1" as="geometry">
            <mxPoint x="390" y="540" as="sourcePoint" />
            <mxPoint x="440" y="490" as="targetPoint" />
          </mxGeometry>
        </mxCell>
      </root>
    </mxGraphModel>
  </diagram>
</mxfile>
